<svg xmlns="http://www.w3.org/2000/svg" viewBox="0 0 256 256" aria-label="Gauges Green mark">
  <path fill="#22c55e" fill-rule="evenodd" d="
    M 128 40
    C 84 40 50 74 50 118
    C 50 162 84 196 128 196
    C 151 196 172 186 186 170
    L 186 198
    C 186 231 160 256 127 256
    C 97 256 74 240 66 216
    L 88 208
    C 94 224 108 232 127 232
    C 146 232 162 218 162 198
    L 162 176
    C 150 189 140 196 128 196
    Z

    M 128 70
    C 101 70 80 91 80 118
    C 80 145 101 166 128 166
    C 155 166 176 145 176 118
    C 176 91 155 70 128 70
    Z

    M 128 90
    C 143 90 156 103 156 118
    C 156 133 143 146 128 146
    C 113 146 100 133 100 118
    C 100 103 113 90 128 90
    Z

    M 176 124
    C 186 124 194 128 200 134
    L 200 142
    C 194 148 186 152 176 152
    C 176 148 176 144 176 140
    C 176 136 176 132 176 128
    Z
  "/>
</svg>
