<svg xmlns="http://www.w3.org/2000/svg" viewBox="0 0 256 256">
  <path fill="#22b56a" fill-rule="evenodd" d="
M 128 32
C 78 32 40 70 40 120
C 40 170 78 208 128 208
C 154 208 176 196 194 176
L 194 206
C 194 238 166 256 132 256
C 96 256 68 236 60 206
L 92 196
C 100 222 116 230 132 230
C 150 230 168 216 168 198
L 168 178
C 154 196 142 208 128 208
Z

M 128 68
C 96 68 72 92 72 120
C 72 148 96 172 128 172
C 160 172 184 148 184 120
C 184 92 160 68 128 68
Z

M 128 92
C 148 92 164 106 164 120
C 164 134 148 148 128 148
C 108 148 92 134 92 120
C 92 106 108 92 128 92
Z
"/>
</svg>