<svg xmlns="http://www.w3.org/2000/svg" viewBox="0 0 256 256" aria-label="Gauges Green g mark">
  <path fill="#22c55e" fill-rule="evenodd" d="
    M 118 44
    C 73 44 38 79 38 124
    C 38 168 73 204 118 204
    C 135 204 151 199 164 190
    L 164 206
    C 164 232 143 252 117 252
    C 94 252 76 239 70 220
    L 92 212
    C 95 223 105 229 117 229
    C 130 229 141 219 141 206
    L 141 186
    C 134 197 126 204 118 204
    Z

    M 118 72
    C 89 72 66 95 66 124
    C 66 153 89 176 118 176
    C 147 176 170 153 170 124
    C 170 95 147 72 118 72
    Z

    M 118 92
    C 136 92 150 106 150 124
    C 150 142 136 156 118 156
    C 100 156 86 142 86 124
    C 86 106 100 92 118 92
    Z

    /* notch cut (remove a small rectangle from outer bowl) */
    M 166 138
    L 194 138
    L 194 152
    L 166 152
    Z
  "/>
</svg>
