<svg xmlns="http://www.w3.org/2000/svg" viewBox="0 0 24 20" fill="currentColor">
  <!-- Scottish Terrier silhouette -->
  <path d="M23 11.5c0 .5-.2 1-.5 1.3-.2.2-.3.4-.3.7v2c0 .8-.7 1.5-1.5 1.5h-1c-.3 0-.5.2-.5.5v1c0 .3-.2.5-.5.5h-2c-.3 0-.5-.2-.5-.5v-1.5c0-.3-.2-.5-.5-.5h-5c-.3 0-.5.2-.5.5v1.5c0 .3-.2.5-.5.5h-2c-.3 0-.5-.2-.5-.5v-1c0-.3-.2-.5-.5-.5h-1c-.8 0-1.5-.7-1.5-1.5v-1.5c0-.3-.1-.5-.3-.7l-1.4-1.4c-.4-.4-.7-1-.7-1.6v-.8c0-.6.2-1.1.6-1.5l.7-.7c.2-.2.3-.4.3-.7V6c0-.6.4-1 1-1h1.5c.3 0 .6-.1.8-.3l1.4-1.4c.4-.4 1-.6 1.5-.6h2.5c.3 0 .5-.2.5-.5V1.5c0-.3.2-.5.5-.5h3c.3 0 .5.2.5.5v1c0 .3.2.5.5.5h3c.6 0 1.1.2 1.5.6l1 1c.3.3.7.4 1.1.4h.4c.6 0 1 .4 1 1v2c0 .3.1.5.3.7l.4.4c.5.5.8 1.2.8 1.9v1z"/>
</svg>
